<svg width="33" height="32" viewBox="0 0 33 32" fill="none" xmlns="http://www.w3.org/2000/svg">
<path fill-rule="evenodd" clip-rule="evenodd" d="M23.334 10H9.33398C8.7817 10 8.33398 10.4477 8.33398 11V23C8.33398 23.5523 8.7817 24 9.33398 24H23.334C23.8863 24 24.334 23.5523 24.334 23V11C24.334 10.4477 23.8863 10 23.334 10ZM9.33398 8C7.67713 8 6.33398 9.34315 6.33398 11V23C6.33398 24.6569 7.67713 26 9.33398 26H23.334C24.9908 26 26.334 24.6569 26.334 23V11C26.334 9.34315 24.9908 8 23.334 8H9.33398Z" fill="#B1B5C4"/>
<path fill-rule="evenodd" clip-rule="evenodd" d="M14.334 16C13.7817 16 13.334 16.4477 13.334 17C13.334 17.5523 13.7817 18 14.334 18H21.334C21.8863 18 22.334 17.5523 22.334 17C22.334 16.4477 21.8863 16 21.334 16H14.334ZM11.334 20C10.7817 20 10.334 20.4477 10.334 21C10.334 21.5523 10.7817 22 11.334 22H17.334C17.8863 22 18.334 21.5523 18.334 21C18.334 20.4477 17.8863 20 17.334 20H11.334Z" fill="#B1B5C4"/>
<path fill-rule="evenodd" clip-rule="evenodd" d="M11.334 6C10.7817 6 10.334 6.44772 10.334 7V11C10.334 11.5523 10.7817 12 11.334 12C11.8863 12 12.334 11.5523 12.334 11V7C12.334 6.44772 11.8863 6 11.334 6ZM21.334 6C20.7817 6 20.334 6.44772 20.334 7V11C20.334 11.5523 20.7817 12 21.334 12C21.8863 12 22.334 11.5523 22.334 11V7C22.334 6.44772 21.8863 6 21.334 6Z" fill="#B1B5C4"/>
</svg>
