<svg width="32" height="32" viewBox="0 0 32 32" fill="none" xmlns="http://www.w3.org/2000/svg">
<path fill-rule="evenodd" clip-rule="evenodd" d="M22.253 6.478C24.3136 5.61941 26.3809 7.68663 25.5223 9.74723L19.5988 23.9637C18.4403 26.7439 14.3655 26.274 13.8703 23.303L13.1313 18.8689L8.69725 18.1299C5.72626 17.6348 5.25632 13.56 8.0366 12.4015L22.253 6.478ZM23.6761 8.978C23.8478 8.56588 23.4344 8.15243 23.0223 8.32415L8.80583 14.2477C7.87907 14.6338 8.03572 15.9921 9.02605 16.1571L13.4601 16.8962C14.3031 17.0366 14.9636 17.6972 15.1041 18.5401L15.8431 22.9742C16.0082 23.9646 17.3665 24.1212 17.7526 23.1944L23.6761 8.978Z" fill="#B1B5C4"/>
</svg>
